<svg width="14" height="15" viewBox="0 0 14 15" fill="none" xmlns="http://www.w3.org/2000/svg">
<path d="M11.8792 2.96484C13.2099 4.27734 13.8752 5.8724 13.8752 7.75C13.8752 9.6276 13.2099 11.2318 11.8792 12.5625C10.5667 13.875 8.9716 14.5312 7.09399 14.5312C5.21639 14.5312 3.61222 13.875 2.28149 12.5625C0.968994 11.2318 0.312744 9.6276 0.312744 7.75C0.312744 5.8724 0.968994 4.27734 2.28149 2.96484C3.61222 1.63411 5.21639 0.96875 7.09399 0.96875C8.9716 0.96875 10.5667 1.63411 11.8792 2.96484ZM6.30103 11.332L11.3323 6.30078C11.551 6.10026 11.551 5.89974 11.3323 5.69922L10.7307 5.07031C10.512 4.86979 10.3023 4.86979 10.1018 5.07031L6.00024 9.17188L4.08618 7.25781C3.88566 7.05729 3.67603 7.05729 3.45728 7.25781L2.85571 7.88672C2.63696 8.08724 2.63696 8.28776 2.85571 8.48828L5.69946 11.332C5.89998 11.5508 6.1005 11.5508 6.30103 11.332Z" fill="black"/>
</svg>
